# xmcd
#
# Track frame offsets:
#   150
#   16816
#   35046
#   52068
#   75723
#   90076
#   114841
#   133625
#   150580
#   174553
#   191016
#   209878
#   228817
#   243693
#   261084
#   277179
#   300608
#
# Disc length: 4241 seconds
#
# Revision: 0
# Processed by: cddbd v1.4PL0 Copyright (c) Steve Scherf et al.
# Submitted via: uFREEDB 1.6.0
#
DISCID=e6108f11
DTITLE=Guaco - 17 Exitos de Guaco
DYEAR=2003
DGENRE=Alternative
TTITLE0=Preguntale a Carruyo
TTITLE1=La placita
TTITLE2=Virgen Guaquera
TTITLE3=Sentimiento Nacional
TTITLE4=Que nadie se mueva
TTITLE5=A comer
TTITLE6=Zapatero
TTITLE7=4 estaciones
TTITLE8=Un cigarrito y un cafe
TTITLE9=El reportero
TTITLE10=Mi desengaño
TTITLE11=Sara
TTITLE12=Tamborera 4 mambos
TTITLE13=Atraccion fatal
TTITLE14=Rumba de amor
TTITLE15=Me gustan las caraqueñas
TTITLE16=Aguas de cristal
EXTD=
EXTT0=
EXTT1=
EXTT2=
EXTT3=
EXTT4=
EXTT5=
EXTT6=
EXTT7=
EXTT8=
EXTT9=
EXTT10=
EXTT11=
EXTT12=
EXTT13=
EXTT14=
EXTT15=
EXTT16=
PLAYORDER=
